<svg xmlns="http://www.w3.org/2000/svg" width="42" height="42" fill="none" viewBox="0 0 42 42"><g clip-path="url(#a)"><rect width="42" height="42" fill="#fafafa" rx="6.72"/><path fill="#654ba9" d="M12 22.56c.353-.834 1.014-1.39 2.011-1.536.916-.134 1.684.162 2.267.837.457.527.688 1.151.821 1.78l.956-1.804c-.244-.094-.547-.2-.839-.328-2.683-1.17-4.297-3.125-4.822-5.835-.418-2.161-.056-4.216 1.223-6.08 1.311-1.912 3.211-3.033 5.598-3.436 1.942-.327 3.842-.16 5.627.629 2.838 1.254 4.465 3.374 4.85 6.278.315 2.37-.288 4.526-1.938 6.388-.927 1.046-2.097 1.78-3.441 2.283l-.253.098.945 1.804c.027-.117.042-.289.11-.44.183-.41.339-.842.597-1.21.534-.759 1.328-1.1 2.295-.968 1.005.137 1.651.708 1.993 1.588-.292.102-.575.196-.853.3-.524.199-.793.558-.784 1.094.005.29-.008.58-.008.871-.001 2.257-.03 4.515.007 6.772.039 2.293-1.226 3.423-3.184 4.03a6.87 6.87 0 0 1-3.936.072.7.7 0 0 0-.335.015c-1.385.317-2.762.335-4.128-.084a5.5 5.5 0 0 1-1.812-.926c-.928-.727-1.279-1.689-1.281-2.782-.007-2.498-.003-4.996-.007-7.494 0-.24-.031-.48-.039-.72a.73.73 0 0 0-.437-.665c-.382-.184-.779-.346-1.203-.532m13.848-8.456c-.05-.553-.072-1.109-.154-1.657-.18-1.198-.597-2.312-1.436-3.264-1.477-1.677-3.936-2-5.743-.744-.99.688-1.566 1.636-1.907 2.716-.489 1.542-.544 3.117-.303 4.7.145.951.457 1.853 1.015 2.67 1.054 1.546 2.87 2.285 4.67 1.874 1.473-.337 2.442-1.241 3.062-2.491.596-1.204.778-2.487.796-3.804M22.79 34.759c.242-.126.495-.239.726-.382.82-.508 1.365-1.2 1.428-2.132.05-.735.014-1.476.005-2.214 0-.07-.063-.178-.126-.204q-1.784-.749-3.582-1.469a.67.67 0 0 0-.444.005c-1.167.464-2.326.946-3.491 1.414-.147.06-.168.141-.168.268.004.555.015 1.112-.004 1.667-.017.49.098.954.279 1.406.332.834 1.023 1.314 1.88 1.625-1.097-1.017-1.693-2.197-1.45-3.716 1.758.088 2.611 1.111 3.173 2.483.582-1.783 2.208-2.634 3.24-2.422.197 1.454-.385 2.635-1.466 3.671m-1.82-11.472c-1.313.898-1.01 2.35.015 3.125 1.113-.89 1.106-2.34-.014-3.125m-3.813 5.205c.747-.28 1.465-.552 2.234-.841-.958-.488-1.734-1.092-2.234-2.033zm7.778.002v-2.916c-.45.949-1.219 1.591-2.211 2.082z"/></g><defs><clipPath id="a"><rect width="42" height="42" fill="#fff" rx="6.72"/></clipPath></defs></svg>